<svg xmlns="http://www.w3.org/2000/svg" viewBox="0 0 100 100">
  <path fill="#111" fill-rule="evenodd" d="
    M82.39,43.70 L91.69,44.88 L91.69,55.12 L82.39,56.30
    L79.91,63.95 L86.73,70.36 L80.72,78.64 L72.51,74.14
    L66.00,78.86 L67.75,88.06 L58.01,91.23 L54.02,82.75
    L45.98,82.75 L41.99,91.23 L32.25,88.06 L34.00,78.86
    L27.49,74.14 L19.28,78.64 L13.27,70.36 L20.09,63.95
    L17.61,56.30 L8.31,55.12 L8.31,44.88 L17.61,43.70
    L20.09,36.05 L13.27,29.64 L19.28,21.36 L27.49,25.86
    L34.00,21.14 L32.25,11.94 L41.99,8.77 L45.98,17.25
    L54.02,17.25 L58.01,8.77 L67.75,11.94 L66.00,21.14
    L72.51,25.86 L80.72,21.36 L86.73,29.64 L79.91,36.05 Z
    M72,50 A22,22 0 1,0 28,50 A22,22 0 1,0 72,50 Z"/>
  <circle cx="50" cy="50" r="12" fill="#111"/>
</svg>
