<?xml version="1.0" encoding="utf-8"?>
<svg version="1.2" baseProfile="tiny-ps"
  xmlns="http://www.w3.org/2000/svg"
  viewBox="0 0 100 100"
  width="240" height="240">
  <title>Operius</title>
  <rect width="100" height="100" fill="#111111"/>
  <path fill="#ffffff" fill-rule="evenodd"
    d="M82.39,43.70L91.69,44.88L91.69,55.12L82.39,56.30
       L79.91,63.95L86.73,70.36L80.72,78.64L72.51,74.14
       L66,78.86L67.75,88.06L58.01,91.23L54.02,82.75
       L45.98,82.75L41.99,91.23L32.25,88.06L34,78.86
       L27.49,74.14L19.28,78.64L13.27,70.36L20.09,63.95
       L17.61,56.30L8.31,55.12L8.31,44.88L17.61,43.70
       L20.09,36.05L13.27,29.64L19.28,21.36L27.49,25.86
       L34,21.14L32.25,11.94L41.99,8.77L45.98,17.25
       L54.02,17.25L58.01,8.77L67.75,11.94L66,21.14
       L72.51,25.86L80.72,21.36L86.73,29.64L79.91,36.05Z
       M72,50A22,22 0 1,0 28,50A22,22 0 1,0 72,50Z"/>
  <circle cx="50" cy="50" r="12" fill="#ffffff"/>
</svg>
